<?xml version="1.0" encoding="UTF-8"?>
<svg xmlns="http://www.w3.org/2000/svg" version="1.1" width="400" height="400" viewBox="0 0 400 400"><rect x="0" y="0" width="400" height="400" fill="#fefefe"/><g transform="scale(9.756)"><g transform="translate(4,4)"><path fill-rule="evenodd" d="M9 0L9 1L8 1L8 2L9 2L9 3L8 3L8 4L10 4L10 7L11 7L11 4L12 4L12 5L13 5L13 6L12 6L12 9L13 9L13 8L14 8L14 9L15 9L15 10L17 10L17 9L18 9L18 10L20 10L20 11L18 11L18 12L17 12L17 11L16 11L16 12L17 12L17 13L18 13L18 15L19 15L19 16L23 16L23 18L22 18L22 19L20 19L20 21L18 21L18 20L19 20L19 19L18 19L18 20L17 20L17 17L18 17L18 16L14 16L14 15L17 15L17 14L16 14L16 13L12 13L12 11L13 11L13 10L11 10L11 11L10 11L10 9L11 9L11 8L6 8L6 9L9 9L9 11L8 11L8 10L5 10L5 12L6 12L6 13L5 13L5 16L4 16L4 14L3 14L3 12L4 12L4 9L5 9L5 8L0 8L0 9L1 9L1 10L0 10L0 11L1 11L1 12L0 12L0 15L1 15L1 16L4 16L4 17L3 17L3 18L5 18L5 17L7 17L7 18L6 18L6 19L2 19L2 17L1 17L1 19L0 19L0 20L1 20L1 19L2 19L2 21L4 21L4 22L2 22L2 24L3 24L3 25L4 25L4 24L5 24L5 25L8 25L8 27L9 27L9 26L11 26L11 27L10 27L10 28L11 28L11 29L12 29L12 30L13 30L13 31L12 31L12 33L13 33L13 32L14 32L14 33L18 33L18 32L17 32L17 31L19 31L19 32L20 32L20 33L21 33L21 32L22 32L22 31L21 31L21 32L20 32L20 31L19 31L19 30L22 30L22 29L23 29L23 28L22 28L22 27L21 27L21 26L23 26L23 27L24 27L24 31L23 31L23 32L24 32L24 33L25 33L25 32L24 32L24 31L27 31L27 32L28 32L28 33L29 33L29 31L30 31L30 32L31 32L31 33L32 33L32 32L31 32L31 31L30 31L30 30L33 30L33 28L32 28L32 29L30 29L30 28L31 28L31 27L32 27L32 26L33 26L33 24L32 24L32 26L31 26L31 25L30 25L30 24L31 24L31 23L32 23L32 22L33 22L33 21L32 21L32 20L31 20L31 19L32 19L32 18L33 18L33 17L32 17L32 16L31 16L31 15L32 15L32 14L33 14L33 13L31 13L31 15L30 15L30 13L29 13L29 10L28 10L28 8L27 8L27 9L26 9L26 8L25 8L25 5L24 5L24 4L25 4L25 3L23 3L23 1L24 1L24 0L23 0L23 1L22 1L22 0L19 0L19 1L20 1L20 2L19 2L19 5L18 5L18 8L17 8L17 9L16 9L16 7L17 7L17 5L16 5L16 4L18 4L18 3L17 3L17 2L16 2L16 4L12 4L12 2L13 2L13 1L11 1L11 2L10 2L10 0ZM15 0L15 1L17 1L17 0ZM14 2L14 3L15 3L15 2ZM10 3L10 4L11 4L11 3ZM20 3L20 5L19 5L19 8L18 8L18 9L22 9L22 8L23 8L23 9L24 9L24 10L23 10L23 11L22 11L22 12L18 12L18 13L22 13L22 12L24 12L24 11L26 11L26 12L25 12L25 13L24 13L24 14L19 14L19 15L23 15L23 16L24 16L24 14L25 14L25 17L24 17L24 18L23 18L23 19L25 19L25 20L23 20L23 21L21 21L21 22L18 22L18 21L17 21L17 22L16 22L16 21L15 21L15 20L14 20L14 19L15 19L15 18L16 18L16 17L14 17L14 16L13 16L13 17L12 17L12 15L13 15L13 14L12 14L12 13L11 13L11 12L10 12L10 13L9 13L9 12L7 12L7 11L6 11L6 12L7 12L7 13L6 13L6 14L8 14L8 13L9 13L9 15L6 15L6 16L7 16L7 17L9 17L9 18L10 18L10 19L9 19L9 20L8 20L8 19L6 19L6 20L4 20L4 21L6 21L6 22L8 22L8 23L9 23L9 25L11 25L11 26L13 26L13 27L12 27L12 29L15 29L15 30L16 30L16 31L17 31L17 30L19 30L19 29L22 29L22 28L21 28L21 27L20 27L20 26L17 26L17 27L16 27L16 29L15 29L15 28L14 28L14 27L15 27L15 26L16 26L16 25L14 25L14 24L15 24L15 23L14 23L14 24L13 24L13 25L12 25L12 23L13 23L13 22L12 22L12 21L15 21L15 22L16 22L16 23L17 23L17 24L20 24L20 25L21 25L21 23L22 23L22 24L23 24L23 23L24 23L24 24L27 24L27 22L25 22L25 21L27 21L27 20L28 20L28 19L26 19L26 18L25 18L25 17L28 17L28 18L29 18L29 17L30 17L30 19L29 19L29 20L30 20L30 21L28 21L28 24L30 24L30 23L29 23L29 22L30 22L30 21L31 21L31 20L30 20L30 19L31 19L31 16L30 16L30 15L29 15L29 13L28 13L28 16L26 16L26 14L25 14L25 13L27 13L27 12L28 12L28 11L27 11L27 10L25 10L25 8L24 8L24 5L23 5L23 4L22 4L22 3ZM8 5L8 7L9 7L9 5ZM20 5L20 8L22 8L22 7L23 7L23 5L22 5L22 7L21 7L21 5ZM13 6L13 7L14 7L14 8L15 8L15 7L16 7L16 6L15 6L15 7L14 7L14 6ZM29 8L29 9L30 9L30 8ZM31 8L31 10L33 10L33 9L32 9L32 8ZM2 11L2 12L1 12L1 15L2 15L2 12L3 12L3 11ZM14 11L14 12L15 12L15 11ZM30 11L30 12L31 12L31 11ZM10 13L10 14L11 14L11 13ZM9 15L9 17L10 17L10 18L11 18L11 19L10 19L10 21L8 21L8 20L6 20L6 21L8 21L8 22L9 22L9 23L10 23L10 24L11 24L11 21L12 21L12 19L13 19L13 18L11 18L11 17L10 17L10 16L11 16L11 15ZM28 16L28 17L29 17L29 16ZM20 17L20 18L21 18L21 17ZM0 21L0 25L1 25L1 21ZM23 21L23 22L22 22L22 23L23 23L23 22L24 22L24 21ZM4 22L4 23L5 23L5 22ZM6 23L6 24L7 24L7 23ZM23 25L23 26L24 26L24 25ZM25 25L25 28L28 28L28 25ZM29 25L29 28L30 28L30 27L31 27L31 26L30 26L30 25ZM26 26L26 27L27 27L27 26ZM19 27L19 28L20 28L20 27ZM8 28L8 33L9 33L9 28ZM17 28L17 29L16 29L16 30L17 30L17 29L18 29L18 28ZM25 29L25 30L28 30L28 31L29 31L29 30L28 30L28 29ZM10 30L10 31L11 31L11 30ZM14 31L14 32L15 32L15 31ZM10 32L10 33L11 33L11 32ZM0 0L0 7L7 7L7 0ZM1 1L1 6L6 6L6 1ZM2 2L2 5L5 5L5 2ZM26 0L26 7L33 7L33 0ZM27 1L27 6L32 6L32 1ZM28 2L28 5L31 5L31 2ZM0 26L0 33L7 33L7 26ZM1 27L1 32L6 32L6 27ZM2 28L2 31L5 31L5 28Z" fill="#000000"/></g></g></svg>
